<?xml version="1.0" encoding="UTF-8"?>
<svg id="Capa_2" data-name="Capa 2" xmlns="http://www.w3.org/2000/svg" viewBox="0 0 161.85 11.34">
  <defs>
    <style>
      .cls-1 {
        fill: #6633cb;
      }
    </style>
  </defs>
  <g id="Capa_1-2" data-name="Capa 1">
    <g>
      <path class="cls-1" d="M0,4.52C0,1.75,1.65,0,4.6,0s4.62,1.75,4.62,4.52v6.6h-1.7v-6.6c0-1.83-1-2.95-2.92-2.95s-2.9,1.12-2.9,2.95v6.6H0v-6.6Z"/>
      <path class="cls-1" d="M10.66,5.67c0-3.27,2.4-5.67,5.8-5.67s5.8,2.4,5.8,5.67-2.4,5.67-5.8,5.67-5.8-2.4-5.8-5.67ZM20.55,5.67c0-2.37-1.67-4.1-4.09-4.1s-4.09,1.73-4.09,4.1,1.67,4.1,4.09,4.1,4.09-1.73,4.09-4.1Z"/>
      <path class="cls-1" d="M28.39.22h4.57c2.75,0,3.97,1.52,3.97,3.59s-1.22,3.6-3.97,3.6h-2.87v3.72h-1.7V.22ZM32.99,5.84c1.63,0,2.22-.87,2.22-2.03s-.58-2.02-2.22-2.02h-2.9v4.05h2.9Z"/>
      <path class="cls-1" d="M38.13,4.7c0-2.89,1.67-4.7,4.72-4.7s4.77,1.82,4.77,4.7v6.42h-1.7v-3.45h-6.14v3.45h-1.65v-6.42ZM45.92,6.1v-1.4c0-1.97-1.03-3.14-3.07-3.14s-3.07,1.17-3.07,3.14v1.4h6.14Z"/>
      <path class="cls-1" d="M49.61.22h4.69c2.69,0,3.85,1.48,3.85,3.5,0,1.63-.77,2.92-2.48,3.35l2.89,4.05h-2.03l-2.6-3.9h-2.6v3.9h-1.7V.22ZM54.31,5.65c1.58,0,2.12-.83,2.12-1.93s-.55-1.93-2.12-1.93h-3v3.87h3Z"/>
      <path class="cls-1" d="M60.07.22h8.02v1.57h-6.32v3h5.35v1.57h-5.35v3.2h6.32v1.57h-8.02V.22Z"/>
      <path class="cls-1" d="M69.41,8.01h1.68c.03,1.07.85,1.77,2.33,1.77s2.37-.7,2.37-1.77c0-1.15-1.17-1.33-2.48-1.57-1.7-.3-3.65-.63-3.65-3.09,0-1.98,1.5-3.35,3.79-3.35s3.74,1.3,3.8,3.25h-1.62c-.05-.97-.8-1.68-2.15-1.68s-2.18.73-2.18,1.73c0,1.15,1.18,1.33,2.5,1.57,1.72.3,3.67.63,3.67,3.09,0,2.08-1.6,3.39-4.04,3.39s-3.97-1.27-4.02-3.34Z"/>
      <path class="cls-1" d="M83.6.22h3.89c3.8,0,5.8,2.18,5.8,5.45s-2,5.45-5.8,5.45h-3.89V.22ZM87.49,9.56c2.79,0,4.09-1.53,4.09-3.89s-1.3-3.89-4.09-3.89h-2.18v7.77h2.18Z"/>
      <path class="cls-1" d="M94.98.22h8.02v1.57h-6.32v3h5.35v1.57h-5.35v3.2h6.32v1.57h-8.02V.22Z"/>
      <path class="cls-1" d="M108.58.22h1.85l3.24,8.94L116.9.22h1.8l-4.12,10.91h-1.87L108.58.22Z"/>
      <path class="cls-1" d="M119.03,5.67c0-3.27,2.4-5.67,5.8-5.67s5.8,2.4,5.8,5.67-2.4,5.67-5.8,5.67-5.8-2.4-5.8-5.67ZM128.92,5.67c0-2.37-1.67-4.1-4.09-4.1s-4.09,1.73-4.09,4.1,1.67,4.1,4.09,4.1,4.09-1.73,4.09-4.1Z"/>
      <path class="cls-1" d="M132.33.22h1.7v9.34h6.12v1.57h-7.82V.22Z"/>
      <path class="cls-1" d="M141.44,4.7c0-2.89,1.67-4.7,4.72-4.7s4.77,1.82,4.77,4.7v6.42h-1.7v-3.45h-6.14v3.45h-1.65v-6.42ZM149.23,6.1v-1.4c0-1.97-1.03-3.14-3.07-3.14s-3.07,1.17-3.07,3.14v1.4h6.14Z"/>
      <path class="cls-1" d="M152.91.22h4.69c2.69,0,3.85,1.48,3.85,3.5,0,1.63-.77,2.92-2.48,3.35l2.88,4.05h-2.03l-2.6-3.9h-2.6v3.9h-1.7V.22ZM157.62,5.65c1.58,0,2.12-.83,2.12-1.93s-.55-1.93-2.12-1.93h-3v3.87h3Z"/>
    </g>
  </g>
</svg>