<?xml version="1.0" encoding="UTF-8"?>
<svg id="Capa_2" data-name="Capa 2" xmlns="http://www.w3.org/2000/svg" viewBox="0 0 163.12 43.41">
  <defs>
    <style>
      .cls-1 {
        fill: #6633cb;
      }
    </style>
  </defs>
  <g id="Capa_1-2" data-name="Capa 1">
    <path class="cls-1" d="M55.37.86h-1.93c-2.71,0-4.84,2.13-4.84,4.84v24.21c0,.78.43,1.21,1.21,1.21h3.14c2.13,0,3.63-1.53,3.63-3.66V2.05c-.03-.78-.43-1.18-1.21-1.18ZM125.33.84c-2.51,0-4.79.89-6,2.22-1.64-1.64-4.93-3.06-8.36-3.06-8.82,0-15.97,7.15-15.97,15.97s7.15,15.97,15.97,15.97c3.08,0,5.59-.98,7.58-2.59-.12,4.93-3.03,7.29-8.85,8.22-.81.12-1.27.75-.89,1.61,1.21,2.71,3.37,4.24,5.91,4.24,4.61,0,10.44-3.46,11.53-10.84.17-1.27.29-3.43.32-5.1V2.02c-.03-.78-.46-1.18-1.24-1.18ZM110.97,24.21c-4.5,0-8.16-3.69-8.16-8.22s3.66-8.22,8.16-8.22,7.99,3.69,7.99,8.22-3.46,8.22-7.99,8.22ZM76.18,0c-7.87,0-14.1,4.12-14.1,11.99v17.9c0,.78.43,1.21,1.21,1.21h3.14c2.13,0,3.63-1.53,3.63-3.66v-14.53c0-3.4,1.9-5.19,6.08-5.19s6.05,1.79,6.05,5.19v16.95c0,.78.43,1.21,1.21,1.21h3.14c2.1,0,3.63-1.53,3.63-3.66v-15.48c.03-7.81-6.14-11.93-14.01-11.93ZM147.15,0c-8.82,0-15.97,7.15-15.97,15.97s7.15,15.97,15.97,15.97,15.97-7.15,15.97-15.97-7.15-15.97-15.97-15.97ZM147.15,24.21c-4.5,0-8.16-3.69-8.16-8.22s3.66-8.22,8.16-8.22,8.16,3.69,8.16,8.22-3.63,8.22-8.16,8.22ZM44.87.84h-3.08c-2.74,0-4.38,1.12-5.62,3.86l-5.94,13.17-3.49-7.99c-.32-.75-.35-1.56,0-2.33l.75-1.73c1.18-2.77,2.28-3.57,3.95-3.92-.14-.84-.69-1.1-2.02-1.1h-4.3c-2.62,0-4.53,1.1-5.62,3.86l-5.19,13.2-4.58-13.15c-.92-2.71-2.85-3.89-5.59-3.89H1.09C.31.84-.24,1.47.11,2.42l10.41,26.64c.69,1.76,1.1,2.1,3.03,2.1s3.37-.86,4.41-3.26l4.12-9.48,4.61,10.64c.75,1.7,1.1,2.1,3.03,2.1s3.23-.84,4.35-3.26L45.88,2.42c.4-.92-.2-1.59-1.01-1.59Z"/>
  </g>
</svg>