<?xml version="1.0" encoding="UTF-8"?>
<svg id="Capa_2" data-name="Capa 2" xmlns="http://www.w3.org/2000/svg" viewBox="0 0 118.85 59.22">
  <defs>
    <style>
      .cls-1 {
        fill: #fff;
      }
    </style>
  </defs>
  <g id="Capa_1-2" data-name="Capa 1">
    <g>
      <path class="cls-1" d="M64.05.2c-.39.06-.76,1.49-1.51,2.24-.55.54-1.24.5-1.6,1.17-.14.25-.09.67-.25,1.08-.31.81-1.39.89-1.39,1.78,0,.96.9,1.14,1.68,1.82.61.55.67.93,1.41,1.19.63.22,1.57-.49,2.42-.24.7.21,1.36.36,1.52,1.07.14.66,0,1.68-.85,1.56-.28-.03-1.52-.45-3.03-.29-1.83.21-3.91.8-4.11,2.84-.11,1.14,1.3,2.48,2.65,2.21.94-.19.5-1.29,1.01-1.83.67-.69,4.47,2.41,8.01,2.41,1.49,0,2.59-.38,3.69-1.53.1-.09.23-.28.39-.29.15.01.41.16.5.22,2.85,2.29,5,6.88,15.46,6.93,1.47,0,3.15.71,4.52,1.96,1.22,1.13,1.93,2.88,2.63,4.67,1.05,2.67,2.92,5.27,5.77,8.17.16.16,2.5,1.98,2.68,2.11.03.02.2.43.14.66-.07,1.73-.32,6.78,3.44,7.01.92.05.68-.6.68-1.04,0-.88-.16-1.75.3-2.65.63-1.24-1.34-1.81-1.29-4.48.04-1.99-1.63-1.65-2.48-3.17-.49-.88-.93-1.35-.89-2.42.19-6.06-1.29-10.04-2.03-11.02-.58-.74-1.05-1.03-.53-1.37,3.14-2.07,3.85-4,3.85-4,1.67-3.92,3.17-7.51,5.24-9.08.42-.33,1.49-1.12,2.14-1.44,1.93-.91,2.95-1.46,3.51-2.01.89-.87,1.59-2.67.74-3.76-1.06-1.35-2.89-.28-3.7.2-5.77,3.42-6.62,9.47-8.62,12.93-1.59,2.77-4.19,4.81-6.5,4.97-1.74.13-3.61-.22-5.48-1.04-4.54-1.99-7.02-4.56-7.6-5.01-1.22-.94-10.68-10.23-18.35-10.61,0,0-.95-1.9-1.19-1.94-.56-.07-1.13,1.14-1.55,1.28-.39.13-1.04-1.31-1.43-1.25M30.31,55.63c-.72-.02-1.33-.61-1.33-1.34v-23.91s-7.88,0-7.88,0v26.36c0,1.29,1.05,2.35,2.33,2.35h13.77c1.29,0,2.33-1.05,2.33-2.35v-26.36h-7.87v23.91c0,.73-.62,1.33-1.35,1.34M56.69,30.38h-11.93c-1.41,0-2.56,1.15-2.56,2.57v26.13h7.89v-23.97c0-.73.6-1.32,1.33-1.32s1.33.57,1.34,1.3v23.99h7.86v-23.99c0-.73.6-1.3,1.33-1.3s1.33.58,1.34,1.32v23.97h7.89v-26.13c0-1.43-1.15-2.57-2.56-2.57h-11.93ZM10.55,35.17c0-.8-.64-1.37-1.33-1.37h-1.34v14.52h1.34c.7,0,1.34-.55,1.33-1.35v-11.8ZM15.84,51.87h-7.96v7.21H0v-28.7h15.89c1.42,0,2.53,1.16,2.53,2.59v16.32c0,1.43-1.15,2.58-2.58,2.58M98.21,52.67c-1.58,0-2.91,1.37-2.91,3.03s1.33,3.02,2.96,3.02,2.93-1.36,2.93-3.02-1.31-3.03-2.93-3.03h-.05ZM101.76,55.68c0,1.95-1.56,3.53-3.5,3.53s-3.53-1.57-3.53-3.53,1.57-3.53,3.47-3.53c1.99,0,3.56,1.56,3.56,3.53"/>
      <path class="cls-1" d="M97.9,55.46c.55,0,.84-.19.84-.58,0-.35-.28-.52-.81-.52h-.16v1.11h.13ZM99.92,57.73h-.94l-1.21-1.61v1.61h-.77v-4.07h.81c1.1,0,1.68.41,1.68,1.21,0,.53-.34,1-.82,1.14l-.06.02,1.31,1.7ZM84.41,48.32v-13.22c-.02-.73-.61-1.29-1.34-1.29s-1.33.58-1.33,1.31v13.2h2.68ZM84.41,59.08v-7.21h-2.68v7.21h-7.87v-26.13c0-1.43,1.15-2.57,2.56-2.57h13.3c1.42,0,2.56,1.15,2.56,2.57v26.13h-7.88Z"/>
    </g>
  </g>
</svg>