<?xml version="1.0" encoding="UTF-8"?>
<svg id="Capa_1" xmlns="http://www.w3.org/2000/svg" version="1.1" viewBox="0 0 16 16">
  <!-- Generator: Adobe Illustrator 29.6.0, SVG Export Plug-In . SVG Version: 2.1.1 Build 207)  -->
  <defs>
    <style>
      .st0 {
        fill: #0866ff;
        fill-rule: evenodd;
      }
    </style>
  </defs>
  <path class="st0" d="M15.3,9.41h0l-.72-1.41.72-1.42c.18-.36.07-.79-.27-1.01l-1.34-.86-.08-1.58c-.02-.4-.34-.73-.74-.74l-1.59-.08-.87-1.34c-.22-.33-.65-.45-1.01-.27l-1.41.72-1.42-.72c-.36-.18-.79-.07-1.01.27l-.86,1.34-1.59.08c-.4.02-.72.34-.74.74l-.08,1.59-1.34.86c-.33.22-.45.65-.27,1.01l.72,1.41-.72,1.42c-.18.36-.07.79.27,1.01l1.34.86.08,1.58c.02.41.34.73.74.74l1.59.08.87,1.34c.22.33.65.45,1.01.27l1.41-.72,1.42.72c.36.18.79.07,1.01-.27l.86-1.34,1.58-.08c.4-.01.73-.34.74-.74l.08-1.59,1.34-.87c.33-.22.45-.65.27-1.01ZM11.53,6.57s0,0-.01.01h0l-4.31,4.31c-.24.24-.63.24-.87,0,0,0,0,0,0,0l-1.85-1.85c-.24-.24-.25-.63-.02-.87.24-.24.63-.25.87-.02,0,0,0,0,.01.01l1.41,1.41,3.87-3.87c.24-.24.63-.25.87-.01.24.24.25.63.01.87Z"/>
</svg>