<?xml version="1.0" encoding="UTF-8"?>
<svg id="Capa_2" data-name="Capa 2" xmlns="http://www.w3.org/2000/svg" viewBox="0 0 12.31 611.59">
  <defs>
    <style>
      .cls-1 {
        fill: #454545;
      }

      .cls-2 {
        fill: none;
        stroke: #454545;
        stroke-miterlimit: 10;
      }
    </style>
  </defs>
  <g id="Capa_1-2" data-name="Capa 1">
    <g>
      <g>
        <path class="cls-1" d="M7.66,97.7h-1.88c-1.22,0-1.68-.3-1.68-1.18,0-.76.41-1.14,1.31-1.14h.58v.47h-.59c-.65,0-.89.26-.89.67,0,.52.31.68,1.17.68h2.07c.86,0,1.18-.16,1.18-.68,0-.41-.24-.67-.9-.67h-.59v-.47h.59c.9,0,1.3.38,1.3,1.14,0,.88-.46,1.18-1.68,1.18Z"/>
        <path class="cls-1" d="M4.18,94.78v-.92c0-.84.27-1.26.99-1.26h.6c.54,0,.8.22.93.59.08-.3.27-.46.83-.51l.99-.04c.53-.04.62-.07.74-.1v.48c-.12.03-.27.06-.53.07l-1.18.06c-.55.05-.63.24-.63.71v.44h2.33v.48h-5.09ZM6.53,93.85c0-.54-.18-.76-.67-.76h-.63c-.49,0-.64.23-.64.77v.44h1.94v-.45Z"/>
        <path class="cls-1" d="M4.18,91.92v-1.91h.42v1.43h1.87v-1.28h.42v1.28h1.95v-1.43h.42v1.91h-5.09Z"/>
        <path class="cls-1" d="M4.18,88.68v-.64l5.09-1.02v.47l-1.52.3v1.14l1.52.29v.47l-5.09-1.01ZM7.32,87.87l-2.64.48h0s2.64.48,2.64.48v-.96Z"/>
        <path class="cls-1" d="M4.6,86.22v.99h-.42v-2.46h.42v.99h4.67v.48h-4.67Z"/>
        <path class="cls-1" d="M4.18,84.29v-.48h5.09v.48h-5.09Z"/>
        <path class="cls-1" d="M4.18,83.34v-.48l4.56-.83h0s-4.56-.85-4.56-.85v-.46l5.1,1v.63l-5.1.99Z"/>
        <path class="cls-1" d="M4.18,80.25v-1.91h.42v1.43h1.87v-1.28h.42v1.28h1.95v-1.43h.42v1.91h-5.09Z"/>
        <path class="cls-1" d="M5.02,76.1v1.01h-.84v-2.99h.84v1.01h4.25v.97h-4.25Z"/>
        <path class="cls-1" d="M7.5,73.92h-1.55c-1.36,0-1.86-.42-1.86-1.54s.51-1.54,1.86-1.54h1.55c1.36,0,1.87.42,1.87,1.54s-.51,1.54-1.87,1.54ZM7.59,71.85h-1.73c-.69,0-.99.1-.99.52s.29.52.99.52h1.73c.7,0,.99-.1.99-.52s-.29-.52-.99-.52Z"/>
        <path class="cls-1" d="M7.5,70.38h-1.55c-1.36,0-1.86-.42-1.86-1.54s.51-1.54,1.86-1.54h1.55c1.36,0,1.87.42,1.87,1.54s-.51,1.54-1.87,1.54ZM7.59,68.32h-1.73c-.69,0-.99.1-.99.52s.29.52.99.52h1.73c.7,0,.99-.1.99-.52s-.29-.52-.99-.52Z"/>
        <path class="cls-1" d="M4.18,66.76v-.97h4.25v-1.35h.84v2.32h-5.09Z"/>
        <path class="cls-1" d="M4.18,64.03v-.61h2.27l-2.27-1.13v-.68l2.5,1.28,2.59-1.32v.72l-2.28,1.14h2.28v.61h-5.09Z"/>
        <path class="cls-1" d="M4.18,61.19v-.61h5.09v.61h-5.09Z"/>
        <path class="cls-1" d="M4.72,59.19v.96h-.55v-2.52h.55v.96h4.54v.61h-4.54Z"/>
      </g>
      <line class="cls-2" x1="6.16" y1="133.7" x2="6.16" y2="611.59"/>
      <line class="cls-2" x1="6.16" x2="6.16" y2="25.28"/>
      <polygon class="cls-1" points="12.31 106.4 0 112.09 0 108.93 12.31 103.23 12.31 106.4"/>
      <polygon class="cls-1" points="12.31 112.31 0 118 0 114.84 12.31 109.13 12.31 112.31"/>
      <polygon class="cls-1" points="12.31 118.22 0 123.91 0 120.74 12.31 115.04 12.31 118.22"/>
      <polygon class="cls-1" points="12.31 33.6 0 39.29 0 36.12 12.31 30.42 12.31 33.6"/>
      <polygon class="cls-1" points="12.31 39.51 0 45.19 0 42.03 12.31 36.33 12.31 39.51"/>
      <polygon class="cls-1" points="12.31 45.41 0 51.1 0 47.94 12.31 42.23 12.31 45.41"/>
    </g>
  </g>
</svg>