<?xml version="1.0" encoding="UTF-8"?>
<svg id="Capa_2" data-name="Capa 2" xmlns="http://www.w3.org/2000/svg" viewBox="0 0 105.29 29.38">
  <defs>
    <style>
      .cls-1 {
        fill: #fff;
      }
    </style>
  </defs>
  <g id="Capa_1-2" data-name="Capa 1">
    <g>
      <g>
        <polygon class="cls-1" points="0 0 105.29 0 105.29 9.43 99.69 12.06 99.69 9.7 103.2 7.95 103.2 2.08 2.08 2.08 2.08 27.3 103.2 27.3 103.2 13.59 105.29 13.59 105.29 29.38 0 29.38 0 0"/>
        <polygon class="cls-1" points="10.97 7.24 15.52 18.97 20.23 7.24 23.69 7.24 23.69 22.03 21.44 22.03 21.33 9.32 16.29 22.04 14.25 21.97 9.54 9.43 9.65 22.03 7.51 22.03 7.35 21.87 7.35 7.4 7.51 7.24 10.97 7.24"/>
        <path class="cls-1" d="M33.62,6.97c9.71,0,10.44,13.86,1.4,15.26-11.54,1.78-12.5-15.26-1.4-15.26ZM29.98,10.34c-2.82,2.74-1.85,8.83,2.26,9.77,8.27,1.91,8.78-11.7.83-11.13-1.08.08-2.31.6-3.09,1.35Z"/>
        <polygon class="cls-1" points="67.01 7.24 67.01 9.32 57.91 9.32 57.91 13.26 66.57 13.26 66.57 15.35 57.91 15.35 57.91 19.95 67.45 19.95 67.21 21.85 67.07 22.03 55.55 22.03 55.39 21.87 55.39 7.4 55.55 7.24 67.01 7.24"/>
        <polygon class="cls-1" points="86.64 7.24 86.64 15.79 95.64 11.62 95.64 7.24 97.94 7.24 97.94 22.03 95.64 22.03 95.64 14.03 86.64 18.2 86.64 22.03 84.34 22.03 84.34 7.24 86.64 7.24"/>
        <path class="cls-1" d="M82.69,11.73h-2.47c-.8-1.58-1.93-2.55-3.74-2.73-7.54-.75-7.51,10.49-1.6,11.25,2.35.3,4.61-1.09,6.66-2.03l1.03,1.77c-1.66.98-3.62,1.94-5.56,2.23-8.42,1.27-12.07-8.82-6.33-13.56,3.63-3,10.9-2.12,12.01,3.07Z"/>
        <polygon class="cls-1" points="54.07 7.24 54.07 9.32 48.59 9.32 48.59 22.03 46.06 22.03 46.06 9.32 40.58 9.32 40.58 7.24 54.07 7.24"/>
      </g>
      <g>
        <polygon class="cls-1" points="88.5 24.02 87.11 24.67 87.11 23.36 86.76 23.36 86.76 25.61 87.11 25.61 87.11 25.04 88.5 24.39 88.5 25.61 88.85 25.61 88.85 23.36 88.5 23.36 88.5 24.02"/>
        <g>
          <path class="cls-1" d="M96.23,23.99c.01-.19.32-.34.65-.34s.65.15.65.35h.37c0-.42-.46-.69-1.02-.69s-1.02.27-1.02.69v.2l1.7.79c-.03.18-.35.32-.67.32-.34,0-.67-.15-.67-.35h-.37c0,.42.47.69,1.03.69s1.03-.27,1.03-.69v-.18l-1.71-.8Z"/>
          <polygon class="cls-1" points="93.3 23.36 92.44 25.4 91.57 23.36 91.19 23.36 92.15 25.61 92.73 25.61 93.69 23.36 93.3 23.36"/>
          <path class="cls-1" d="M91.56,25.61l-.96-2.26h-.58l-.96,2.26h.38l.08-.18,1.32-.61.34.8h.38ZM90.31,23.57l.4.94-.99.46.59-1.4Z"/>
          <path class="cls-1" d="M95.81,25.61l-.96-2.26h-.58l-.96,2.26h.38l.08-.18,1.32-.61.34.8h.38ZM94.56,23.57l.4.94-.99.46.59-1.4Z"/>
        </g>
        <polygon class="cls-1" points="88.5 24.02 87.11 24.67 87.11 23.36 86.76 23.36 86.76 25.61 87.11 25.61 87.11 25.04 88.5 24.39 88.5 25.61 88.85 25.61 88.85 23.36 88.5 23.36 88.5 24.02"/>
        <g>
          <path class="cls-1" d="M96.23,23.99c.01-.19.32-.34.65-.34s.65.15.65.35h.37c0-.42-.46-.69-1.02-.69s-1.02.27-1.02.69v.2l1.7.79c-.03.18-.35.32-.67.32-.34,0-.67-.15-.67-.35h-.37c0,.42.47.69,1.03.69s1.03-.27,1.03-.69v-.18l-1.71-.8Z"/>
          <polygon class="cls-1" points="93.3 23.36 92.44 25.4 91.57 23.36 91.19 23.36 92.15 25.61 92.73 25.61 93.69 23.36 93.3 23.36"/>
          <path class="cls-1" d="M91.56,25.61l-.96-2.26h-.58l-.96,2.26h.38l.08-.18,1.32-.61.34.8h.38ZM90.31,23.57l.4.94-.99.46.59-1.4Z"/>
          <path class="cls-1" d="M95.81,25.61l-.96-2.26h-.58l-.96,2.26h.38l.08-.18,1.32-.61.34.8h.38ZM94.56,23.57l.4.94-.99.46.59-1.4Z"/>
        </g>
      </g>
      <g>
        <path class="cls-1" d="M84.57,25.45v.11h-.22v-1.2h.22v.42c.05-.08.15-.14.28-.14.22,0,.41.17.41.47h0c0,.3-.18.47-.41.47-.13,0-.23-.06-.28-.14ZM85.03,25.12h0c0-.2-.1-.3-.23-.3s-.23.1-.23.3h0c0,.2.1.3.23.3s.23-.1.23-.3Z"/>
        <path class="cls-1" d="M85.43,25.67h.06c.1,0,.13,0,.16-.1h0s-.36-.89-.36-.89h.23l.25.65h0l.27-.65h.21l-.4.91c-.1.22-.14.25-.37.25h-.07v-.17Z"/>
      </g>
    </g>
  </g>
</svg>